<svg width="59" height="59" viewBox="0 0 59 59" fill="none" xmlns="http://www.w3.org/2000/svg">
<g id="Metro">
<path id="Vector" d="M51.5 12.1977C55.2674 16.9419 57.5 22.9419 57.5 29.5C57.5 44.9419 44.9884 57.5 29.5 57.5C14.0116 57.5 1.5 44.9419 1.5 29.5C1.5 14.0581 14.0116 1.5 29.5 1.5C35.9186 1.5 41.8721 3.68605 46.5698 7.31395" fill="#FEED04"/>
<path id="Vector (Stroke)" fill-rule="evenodd" clip-rule="evenodd" d="M29.5 2.95595C14.8173 2.95595 2.95601 14.8606 2.95601 29.4999C2.95601 44.1393 14.8173 56.0439 29.5 56.0439C44.1827 56.0439 56.044 44.1393 56.044 29.4999C56.044 23.2789 53.9279 17.5963 50.3598 13.1031L52.6402 11.2922C56.607 16.2873 58.956 22.6047 58.956 29.4999C58.956 45.7444 45.7941 58.9559 29.5 58.9559C13.2059 58.9559 0.0440063 45.7444 0.0440063 29.4999C0.0440063 13.2555 13.2059 0.0439453 29.5 0.0439453C36.2521 0.0439453 42.5163 2.34388 47.4597 6.16154L45.6798 8.46626C41.2279 5.0281 35.5851 2.95595 29.5 2.95595Z" fill="white"/>
<path id="Vector_2" d="M49.2674 13.2209C51.194 13.2209 52.7558 11.6591 52.7558 9.73251C52.7558 7.80594 51.194 6.24414 49.2674 6.24414C47.3408 6.24414 45.7791 7.80594 45.7791 9.73251C45.7791 11.6591 47.3408 13.2209 49.2674 13.2209Z" fill="#C80606"/>
<path id="Vector (Stroke)_2" fill-rule="evenodd" clip-rule="evenodd" d="M49.2674 7.50413C48.0367 7.50413 47.039 8.50181 47.039 9.7325C47.039 10.9632 48.0367 11.9609 49.2674 11.9609C50.4981 11.9609 51.4958 10.9632 51.4958 9.7325C51.4958 8.50181 50.4981 7.50413 49.2674 7.50413ZM44.519 9.7325C44.519 7.11005 46.645 4.98413 49.2674 4.98413C51.8899 4.98413 54.0158 7.11005 54.0158 9.7325C54.0158 12.355 51.8899 14.4809 49.2674 14.4809C46.645 14.4809 44.519 12.355 44.519 9.7325Z" fill="white"/>
<path id="Vector_3" fill-rule="evenodd" clip-rule="evenodd" d="M16.2907 44.9884C16.4302 44.8489 16.6163 44.7094 16.8488 44.6163C17.0349 44.5233 17.2674 44.4768 17.4535 44.4768C17.6395 44.4768 17.8721 44.5233 18.0581 44.6163C18.2442 44.7094 18.4302 44.8024 18.6163 44.9884L18.8488 45.221L18.3837 45.6861L18.1511 45.4535C18.0581 45.3605 17.9651 45.2675 17.8256 45.221C17.686 45.1745 17.593 45.128 17.4535 45.128C17.3139 45.128 17.2209 45.1745 17.0814 45.221C16.9418 45.2675 16.8488 45.3605 16.7558 45.4535C16.6628 45.5466 16.5698 45.6396 16.5232 45.7791C16.4767 45.9187 16.4302 46.0117 16.4302 46.1512C16.4302 46.2908 16.4767 46.3838 16.5232 46.5233C16.5698 46.6629 16.6628 46.7559 16.7558 46.8489C16.9418 47.0349 17.1744 47.128 17.4535 47.128C17.593 47.128 17.7325 47.0815 17.8256 47.0349C17.9651 46.9884 18.0581 46.8954 18.1511 46.8024L18.3837 46.5698L18.8488 47.0349L18.6163 47.2675C18.4767 47.407 18.2907 47.5466 18.0581 47.6396C17.8721 47.7326 17.6395 47.7791 17.4535 47.7791C17.2674 47.7791 17.0349 47.7326 16.8488 47.6396C16.6628 47.5466 16.4767 47.4535 16.2907 47.2675C16.1511 47.128 16.0116 46.9419 15.9186 46.7094C15.8256 46.5233 15.7791 46.2908 15.7791 46.1047C15.7791 45.8722 15.8256 45.6861 15.9186 45.5001C16.0116 45.314 16.1046 45.1745 16.2907 44.9884Z" fill="#C80606"/>
<path id="Vector_4" fill-rule="evenodd" clip-rule="evenodd" d="M21.6861 46.6627L22.1512 47.1278L21.9186 47.3604C21.7791 47.4999 21.5931 47.6395 21.3605 47.7325C21.1744 47.8255 20.9419 47.872 20.7093 47.872C20.4768 47.872 20.2907 47.8255 20.0582 47.7325C19.8721 47.6395 19.6861 47.5464 19.5 47.3604C19.3605 47.2209 19.221 47.0348 19.1279 46.8023C19.0349 46.6162 18.9884 46.3837 18.9884 46.1976C18.9884 45.9651 19.0349 45.779 19.1279 45.593C19.221 45.4069 19.314 45.2209 19.5 45.0348C19.6396 44.8953 19.8256 44.7558 20.0582 44.6627C20.2442 44.5697 20.4768 44.5232 20.6628 44.5232C20.8489 44.5232 21.0814 44.5697 21.2675 44.6627C21.4535 44.7558 21.6396 44.8488 21.8256 45.0348L22.0582 45.2674L20.2442 47.0813C20.4303 47.1744 20.6163 47.2209 20.8489 47.1744C21.0814 47.1278 21.221 47.0348 21.407 46.8953L21.6861 46.6627ZM20.0117 45.4534C19.8256 45.6395 19.7326 45.872 19.7326 46.1511C19.7326 46.2906 19.7791 46.4302 19.8256 46.5697C19.8721 46.5232 19.9651 46.4302 20.1047 46.2906C20.2442 46.1511 20.3372 46.0581 20.4768 45.9185C20.6163 45.779 20.7558 45.6395 20.8489 45.5464C20.9884 45.4069 21.0814 45.3139 21.1279 45.2674C20.9419 45.1744 20.7558 45.1278 20.5233 45.1744C20.3838 45.2209 20.1977 45.3139 20.0117 45.4534Z" fill="#C80606"/>
<path id="Vector_5" fill-rule="evenodd" clip-rule="evenodd" d="M22.3372 46.1512C22.3372 45.9187 22.3837 45.6861 22.4768 45.5001C22.5698 45.314 22.6628 45.128 22.8488 44.9884C22.9884 44.8489 23.1744 44.7094 23.3605 44.6163C23.5465 44.5233 23.7791 44.4768 24.0116 44.4768C24.2442 44.4768 24.4768 44.5233 24.6628 44.6163C24.8488 44.7094 25.0349 44.8024 25.1744 44.9884C25.314 45.128 25.4535 45.314 25.5465 45.5001C25.6395 45.6861 25.6861 45.9187 25.6861 46.1512V47.8256H25.0349V46.1512C25.0349 46.0117 24.9884 45.8722 24.9419 45.7791C24.8954 45.6396 24.8023 45.5466 24.7093 45.4535C24.6163 45.3605 24.5233 45.2675 24.3837 45.221C24.2442 45.1745 24.1512 45.128 24.0116 45.128C23.8721 45.128 23.7326 45.1745 23.6395 45.221C23.5 45.2675 23.407 45.3605 23.314 45.4535C23.2209 45.5466 23.1744 45.6396 23.0814 45.7791C23.0349 45.9187 22.9884 46.0117 22.9884 46.1512V47.8256H22.3372V46.1512Z" fill="#C80606"/>
<path id="Vector_6" fill-rule="evenodd" clip-rule="evenodd" d="M26.3372 44.9884C26.4767 44.8489 26.6628 44.7094 26.8953 44.6163C27.0814 44.5233 27.3139 44.4768 27.5 44.4768C27.7325 44.4768 27.9186 44.5233 28.1046 44.6163C28.2907 44.7094 28.4767 44.8024 28.6628 44.9884L28.8953 45.221L28.4302 45.6861L28.1977 45.4535C28.1046 45.3605 28.0116 45.2675 27.8721 45.221C27.7325 45.1745 27.6395 45.128 27.5 45.128C27.3604 45.128 27.2674 45.1745 27.1279 45.221C26.9884 45.2675 26.8953 45.3605 26.8023 45.4535C26.7093 45.5466 26.6163 45.6396 26.5697 45.7791C26.5232 45.9187 26.4767 46.0117 26.4767 46.1512C26.4767 46.2908 26.5232 46.3838 26.5697 46.5233C26.6163 46.6629 26.7093 46.7559 26.8023 46.8489C26.9884 47.0349 27.2209 47.128 27.5 47.128C27.6395 47.128 27.779 47.0815 27.8721 47.0349C28.0116 46.9884 28.1046 46.8954 28.1977 46.8024L28.4302 46.5698L28.8953 47.0349L28.6628 47.2675C28.5232 47.407 28.3372 47.5466 28.1046 47.6396C27.9186 47.7326 27.686 47.7791 27.5 47.7791C27.2674 47.7791 27.0814 47.7326 26.8953 47.6396C26.7093 47.5466 26.5232 47.4535 26.3372 47.2675C26.1977 47.128 26.0581 46.9419 25.9651 46.7094C25.8721 46.5233 25.8256 46.2908 25.8256 46.1047C25.8256 45.8722 25.8721 45.6861 25.9651 45.5001C26.0581 45.314 26.1511 45.1745 26.3372 44.9884Z" fill="#C80606"/>
<path id="Vector_7" fill-rule="evenodd" clip-rule="evenodd" d="M29.1279 46.1512C29.1279 45.9187 29.1744 45.6861 29.2675 45.5001C29.3605 45.314 29.4535 45.128 29.6396 44.9884C29.7791 44.8489 29.9651 44.7094 30.1512 44.6163C30.3372 44.5233 30.5698 44.4768 30.8023 44.4768C31.0349 44.4768 31.2675 44.5233 31.4535 44.6163C31.6396 44.7094 31.8256 44.8024 31.9651 44.9884C32.1047 45.128 32.2442 45.314 32.3372 45.5001C32.4303 45.6861 32.4768 45.9187 32.4768 46.1512C32.4768 46.3838 32.4303 46.5698 32.3372 46.8024C32.2442 46.9884 32.1512 47.1745 31.9651 47.314C31.8256 47.4535 31.6396 47.5931 31.4535 47.6861C31.2675 47.7791 31.0349 47.8256 30.8023 47.8256C30.5698 47.8256 30.3837 47.7791 30.1512 47.6861C29.9651 47.5931 29.7791 47.5001 29.6396 47.314C29.5 47.1745 29.3605 46.9884 29.2675 46.8024C29.1744 46.6163 29.1279 46.3838 29.1279 46.1512ZM29.7791 46.1512C29.7791 46.2908 29.8256 46.4303 29.8721 46.5233C29.9186 46.6629 30.0117 46.7559 30.1047 46.8489C30.1977 46.9419 30.2907 46.9884 30.4303 47.0815C30.5698 47.128 30.6628 47.1745 30.8023 47.1745C30.9419 47.1745 31.0814 47.128 31.1744 47.0815C31.314 47.0349 31.407 46.9419 31.5 46.8489C31.593 46.7559 31.6861 46.6629 31.7326 46.5233C31.7791 46.3838 31.8256 46.2908 31.8256 46.1512C31.8256 46.0117 31.7791 45.8722 31.7326 45.7791C31.6861 45.6396 31.593 45.5466 31.5 45.4535C31.407 45.3605 31.314 45.2675 31.1744 45.221C31.0349 45.1745 30.9419 45.128 30.8023 45.128C30.6628 45.128 30.5233 45.1745 30.4303 45.221C30.2907 45.2675 30.1977 45.3605 30.1047 45.4535C30.0117 45.5466 29.9651 45.6396 29.8721 45.7791C29.8256 45.9187 29.7791 46.0117 29.7791 46.1512Z" fill="#C80606"/>
<path id="Vector_8" fill-rule="evenodd" clip-rule="evenodd" d="M35.593 44.5232V45.1744H33.6395C33.5465 45.1744 33.4535 45.2209 33.407 45.2674C33.3605 45.3139 33.3139 45.4069 33.3139 45.4999C33.3139 45.593 33.3605 45.686 33.407 45.7325C33.4535 45.779 33.5465 45.8255 33.6395 45.8255H34.9419C35.0814 45.8255 35.2209 45.872 35.3139 45.9185C35.4535 45.9651 35.5465 46.0581 35.6395 46.1046C35.7326 46.1976 35.8256 46.2906 35.8721 46.4302C35.9186 46.5697 35.9651 46.6627 35.9651 46.8023C35.9651 46.9418 35.9186 47.0813 35.8721 47.1744C35.8256 47.3139 35.7326 47.4069 35.6395 47.4999C35.5465 47.593 35.4535 47.6395 35.3139 47.7325C35.1744 47.779 35.0814 47.8255 34.9419 47.8255H32.9419V47.1744H34.9419C35.0349 47.1744 35.1279 47.1278 35.1744 47.0813C35.2209 47.0348 35.2674 46.9418 35.2674 46.8488C35.2674 46.7558 35.2209 46.6627 35.1744 46.6162C35.1279 46.5697 35.0349 46.5232 34.9419 46.5232H33.6395C33.5 46.5232 33.3605 46.5232 33.2674 46.4302C33.1279 46.3837 33.0349 46.2906 32.9419 46.1976C32.8488 46.1046 32.8023 46.0116 32.7093 45.872C32.6628 45.7325 32.6163 45.6395 32.6163 45.4999C32.6163 45.3604 32.6628 45.2209 32.7093 45.1278C32.7558 44.9883 32.8488 44.8953 32.9419 44.8023C33.0349 44.7092 33.1279 44.6627 33.2674 44.6162C33.407 44.5697 33.5 44.5232 33.6395 44.5232H35.593Z" fill="#C80606"/>
<path id="Vector_9" fill-rule="evenodd" clip-rule="evenodd" d="M39.4535 44.5232V46.1511C39.4535 46.3837 39.407 46.5697 39.314 46.8023C39.221 46.9883 39.1279 47.1744 38.9419 47.3139C38.8023 47.4534 38.6163 47.593 38.4303 47.686C38.2442 47.779 38.0117 47.8255 37.7791 47.8255C37.5465 47.8255 37.3605 47.779 37.1279 47.686C36.9419 47.593 36.7558 47.4999 36.6163 47.3139C36.4768 47.1744 36.3372 46.9883 36.2442 46.8023C36.1512 46.6162 36.1047 46.3837 36.1047 46.1511V44.5232H36.7558V46.1511C36.7558 46.2906 36.8023 46.4302 36.8489 46.5232C36.8954 46.6627 36.9884 46.7558 37.0814 46.8488C37.1744 46.9418 37.2675 46.9883 37.407 47.0813C37.5465 47.1278 37.6396 47.1744 37.7791 47.1744C37.9186 47.1744 38.0582 47.1278 38.1512 47.0813C38.2907 47.0348 38.3837 46.9418 38.4768 46.8488C38.5698 46.7558 38.6628 46.6627 38.7093 46.5232C38.7558 46.3837 38.8023 46.2906 38.8023 46.1511V44.5232H39.4535Z" fill="#C80606"/>
<path id="Vector_10" fill-rule="evenodd" clip-rule="evenodd" d="M42.8953 43.1743V46.1511C42.8953 46.3836 42.8488 46.5697 42.7558 46.8022C42.6628 46.9883 42.5698 47.1743 42.3837 47.3139C42.2442 47.4534 42.0581 47.5929 41.8721 47.6859C41.686 47.779 41.4535 47.8255 41.2209 47.8255C40.9884 47.8255 40.8023 47.779 40.5698 47.6859C40.3837 47.5929 40.1977 47.4999 40.0581 47.3139C39.9186 47.1743 39.7791 46.9883 39.686 46.8022C39.593 46.6162 39.5465 46.3836 39.5465 46.1511C39.5465 45.9185 39.593 45.6859 39.686 45.4999C39.7791 45.3139 39.8721 45.1278 40.0581 44.9883C40.1977 44.8487 40.3837 44.7092 40.5698 44.6162C40.7558 44.5232 40.9884 44.4766 41.2209 44.4766H42.1977V43.1743H42.8953ZM41.2674 47.1743C41.407 47.1743 41.5465 47.1278 41.6395 47.0813C41.7791 47.0348 41.8721 46.9418 41.9651 46.8487C42.0581 46.7557 42.1512 46.6627 42.1977 46.5232C42.2442 46.3836 42.2907 46.2906 42.2907 46.1511V45.1743H41.314C41.1744 45.1743 41.0349 45.2208 40.9419 45.2673C40.8023 45.3139 40.7093 45.4069 40.6163 45.4999C40.5233 45.5929 40.4767 45.6859 40.3837 45.8255C40.3372 45.965 40.2907 46.058 40.2907 46.1976C40.2907 46.3371 40.3372 46.4766 40.3837 46.5697C40.4302 46.7092 40.5233 46.8022 40.6163 46.8952C40.7093 46.9883 40.8023 47.0348 40.9419 47.1278C40.9884 47.1278 41.1279 47.1743 41.2674 47.1743Z" fill="#C80606"/>
<path id="Vector_11" d="M35.407 24.9418L35.8721 22.4767C35.8721 22.4767 32.8488 22.2907 32.3372 24.9418H31.2674L30.8953 26.6627H32.1046L31.2209 31.779C30.8488 34.6627 33.9186 34.5232 33.9186 34.5232C37.2209 34.5232 36.9418 32.1511 36.9418 32.1511C36.9418 32.1511 33.8721 33.7325 34.3372 30.9418L35.1279 26.6627H36.1046C36.1046 26.6627 37.1744 26.6627 37.3604 26.0116L37.6395 24.8953H35.407V24.9418Z" fill="#C80606"/>
<path id="Vector_12" d="M54.1511 30.3837C53.4535 33.0813 51.4535 34.4767 48.5232 34.4767C46.1977 34.4767 43.593 33.0348 44.6628 28.7092C45.3604 26.0116 47.3139 24.6162 50.2907 24.6162C52.9884 24.6162 55.2209 26.1511 54.1511 30.3837ZM50.1977 26.3371C49.3604 26.1976 48.3372 27.1278 47.9186 29.1744C47.5465 30.9418 47.5 32.5697 48.7093 32.7557C49.7791 32.8953 50.6163 31.686 50.9884 29.9185C51.3605 27.9185 51.3604 26.5697 50.1977 26.3371Z" fill="#C80606"/>
<path id="Vector_13" d="M24.6628 30.5232C24.6628 30.5232 24.1512 33.8255 30.0116 31.965C30.0116 31.965 30.1977 34.4767 26.6628 34.4767C26.6628 34.4767 20.8023 35.1278 21.5 29.3139C21.5 29.3139 22.1047 24.5232 27.0349 24.5232C27.0349 24.5232 30.6163 24.3371 30.6163 27.2209C30.6628 27.2209 30.9419 30.7092 24.6628 30.5232ZM27.0349 26.2906C25.2675 26.1511 24.8023 28.8023 24.8023 28.8023C24.8023 28.8023 27.4535 29.0813 27.8721 27.6395C27.8256 27.6395 28.2907 26.4302 27.0349 26.2906Z" fill="#C80606"/>
<path id="Vector_14" d="M41.593 26.9419C43.1279 24.2907 45.1279 24.8024 45.1279 24.8024L44.4767 27.7791C41.5465 27.128 41.0814 30.2442 41.0814 30.2442L40.2907 34.1977H38.7558C36.9419 34.1977 37.5465 32.3373 37.5465 32.3373L38.9419 24.8954H40.7093C40.7093 24.8954 42.0116 24.8489 41.7326 26.0582L41.593 26.9419Z" fill="#C80606"/>
<path id="Vector_15" d="M5.4535 34.2442C5.4535 34.2442 6.89536 34.3837 7.36048 32.9419L10.6163 25.407L9.87211 32.6163C9.87211 32.6163 9.50001 34.2442 10.9884 34.2442H12.4768C13.407 34.2442 13.7791 33.3605 13.7791 33.3605L17.8256 25.7791L16.6163 32.8488C16.3372 34.3372 17.8256 34.2442 17.8256 34.2442H19.8256L21.8256 22.5698H18.5233C17.1744 22.5698 16.8489 23.2674 16.8489 23.2674L13.3605 29.593L13.9186 23.8721C14.1047 22.3837 12.4302 22.5233 12.4302 22.5233H9.40699L4.29071 34.1977H5.4535V34.2442Z" fill="#C80606"/>
</g>
</svg>
